<mxfile host="app.diagrams.net" agent="Mozilla/5.0 (Windows NT 10.0; Win64; x64) AppleWebKit/537.36 (KHTML, like Gecko) Chrome/131.0.0.0 Safari/537.36" version="25.0.3">
  <diagram name="Página-1" id="ar9HumGGPcjDClUWBHZX">
    <mxGraphModel dx="2978" dy="1508" grid="1" gridSize="10" guides="1" tooltips="1" connect="1" arrows="1" fold="1" page="1" pageScale="1" pageWidth="827" pageHeight="1169" math="0" shadow="0">
      <root>
        <mxCell id="0" />
        <mxCell id="1" parent="0" />
        <mxCell id="0x68oFM2UOdlTOCWTfVT-75" value="" style="rounded=0;whiteSpace=wrap;html=1;fillColor=none;" vertex="1" parent="1">
          <mxGeometry x="1275" y="230" width="870" height="800" as="geometry" />
        </mxCell>
        <mxCell id="0x68oFM2UOdlTOCWTfVT-79" style="edgeStyle=orthogonalEdgeStyle;rounded=0;orthogonalLoop=1;jettySize=auto;html=1;entryX=0;entryY=0.5;entryDx=0;entryDy=0;" edge="1" parent="1" source="0x68oFM2UOdlTOCWTfVT-42" target="0x68oFM2UOdlTOCWTfVT-75">
          <mxGeometry relative="1" as="geometry" />
        </mxCell>
        <mxCell id="0x68oFM2UOdlTOCWTfVT-42" value="" style="rounded=0;whiteSpace=wrap;html=1;fillColor=none;" vertex="1" parent="1">
          <mxGeometry x="300" y="230" width="870" height="800" as="geometry" />
        </mxCell>
        <mxCell id="0x68oFM2UOdlTOCWTfVT-17" style="edgeStyle=orthogonalEdgeStyle;rounded=0;orthogonalLoop=1;jettySize=auto;html=1;entryX=0.072;entryY=0.211;entryDx=0;entryDy=0;entryPerimeter=0;" edge="1" parent="1" source="0x68oFM2UOdlTOCWTfVT-5" target="0x68oFM2UOdlTOCWTfVT-11">
          <mxGeometry relative="1" as="geometry">
            <Array as="points">
              <mxPoint x="740" y="420" />
            </Array>
          </mxGeometry>
        </mxCell>
        <UserObject label="insights_distribuicao_deputados.json" id="0x68oFM2UOdlTOCWTfVT-5">
          <mxCell style="rounded=0;whiteSpace=wrap;html=1;fillColor=#dae8fc;strokeColor=#6c8ebf;" vertex="1" parent="1">
            <mxGeometry x="350" y="390" width="250" height="60" as="geometry" />
          </mxCell>
        </UserObject>
        <mxCell id="0x68oFM2UOdlTOCWTfVT-16" style="edgeStyle=orthogonalEdgeStyle;rounded=0;orthogonalLoop=1;jettySize=auto;html=1;" edge="1" parent="1" source="0x68oFM2UOdlTOCWTfVT-6" target="0x68oFM2UOdlTOCWTfVT-11">
          <mxGeometry relative="1" as="geometry" />
        </mxCell>
        <mxCell id="0x68oFM2UOdlTOCWTfVT-6" value="deputados.parquet" style="rounded=0;whiteSpace=wrap;html=1;fillColor=#d5e8d4;strokeColor=#82b366;" vertex="1" parent="1">
          <mxGeometry x="350" y="310" width="250" height="60" as="geometry" />
        </mxCell>
        <mxCell id="0x68oFM2UOdlTOCWTfVT-18" style="edgeStyle=orthogonalEdgeStyle;rounded=0;orthogonalLoop=1;jettySize=auto;html=1;exitX=1;exitY=0.25;exitDx=0;exitDy=0;" edge="1" parent="1" source="0x68oFM2UOdlTOCWTfVT-7" target="0x68oFM2UOdlTOCWTfVT-11">
          <mxGeometry relative="1" as="geometry" />
        </mxCell>
        <UserObject label="serie_despesas_diárias_deputados.parquet" id="0x68oFM2UOdlTOCWTfVT-7">
          <mxCell style="rounded=0;whiteSpace=wrap;html=1;fillColor=#d5e8d4;strokeColor=#82b366;" vertex="1" parent="1">
            <mxGeometry x="350" y="470" width="250" height="60" as="geometry" />
          </mxCell>
        </UserObject>
        <UserObject label="insights_despesas_deputados.json" id="0x68oFM2UOdlTOCWTfVT-8">
          <mxCell style="rounded=0;whiteSpace=wrap;html=1;fillColor=#dae8fc;strokeColor=#6c8ebf;" vertex="1" parent="1">
            <mxGeometry x="350" y="550" width="250" height="60" as="geometry" />
          </mxCell>
        </UserObject>
        <UserObject label="proposicoes_deputados.parquet" id="0x68oFM2UOdlTOCWTfVT-9">
          <mxCell style="rounded=0;whiteSpace=wrap;html=1;fillColor=#d5e8d4;strokeColor=#82b366;" vertex="1" parent="1">
            <mxGeometry x="350" y="630" width="250" height="60" as="geometry" />
          </mxCell>
        </UserObject>
        <mxCell id="0x68oFM2UOdlTOCWTfVT-21" style="edgeStyle=orthogonalEdgeStyle;rounded=0;orthogonalLoop=1;jettySize=auto;html=1;exitX=1;exitY=0.5;exitDx=0;exitDy=0;entryX=0.5;entryY=1;entryDx=0;entryDy=0;" edge="1" parent="1" source="0x68oFM2UOdlTOCWTfVT-10" target="0x68oFM2UOdlTOCWTfVT-11">
          <mxGeometry relative="1" as="geometry" />
        </mxCell>
        <UserObject label="sumarizacao_proposicoes.json" id="0x68oFM2UOdlTOCWTfVT-10">
          <mxCell style="rounded=0;whiteSpace=wrap;html=1;fillColor=#dae8fc;strokeColor=#6c8ebf;" vertex="1" parent="1">
            <mxGeometry x="350" y="710" width="250" height="60" as="geometry" />
          </mxCell>
        </UserObject>
        <mxCell id="0x68oFM2UOdlTOCWTfVT-25" style="edgeStyle=orthogonalEdgeStyle;rounded=0;orthogonalLoop=1;jettySize=auto;html=1;entryX=0;entryY=0.5;entryDx=0;entryDy=0;" edge="1" parent="1" source="0x68oFM2UOdlTOCWTfVT-11" target="0x68oFM2UOdlTOCWTfVT-26">
          <mxGeometry relative="1" as="geometry">
            <mxPoint x="950" y="310" as="targetPoint" />
          </mxGeometry>
        </mxCell>
        <mxCell id="0x68oFM2UOdlTOCWTfVT-11" value="Vetorizador Faiss" style="ellipse;whiteSpace=wrap;html=1;aspect=fixed;fillColor=#f8cecc;strokeColor=#b85450;" vertex="1" parent="1">
          <mxGeometry x="730" y="450" width="144" height="144" as="geometry" />
        </mxCell>
        <mxCell id="0x68oFM2UOdlTOCWTfVT-19" style="edgeStyle=orthogonalEdgeStyle;rounded=0;orthogonalLoop=1;jettySize=auto;html=1;exitX=1;exitY=0.5;exitDx=0;exitDy=0;entryX=0.037;entryY=0.64;entryDx=0;entryDy=0;entryPerimeter=0;" edge="1" parent="1" source="0x68oFM2UOdlTOCWTfVT-8" target="0x68oFM2UOdlTOCWTfVT-11">
          <mxGeometry relative="1" as="geometry" />
        </mxCell>
        <mxCell id="0x68oFM2UOdlTOCWTfVT-20" style="edgeStyle=orthogonalEdgeStyle;rounded=0;orthogonalLoop=1;jettySize=auto;html=1;entryX=0.069;entryY=0.625;entryDx=0;entryDy=0;entryPerimeter=0;" edge="1" parent="1">
          <mxGeometry relative="1" as="geometry">
            <mxPoint x="600" y="680.0144927536232" as="sourcePoint" />
            <mxPoint x="739.9359999999999" y="560" as="targetPoint" />
          </mxGeometry>
        </mxCell>
        <mxCell id="0x68oFM2UOdlTOCWTfVT-31" style="edgeStyle=orthogonalEdgeStyle;rounded=0;orthogonalLoop=1;jettySize=auto;html=1;" edge="1" parent="1" source="0x68oFM2UOdlTOCWTfVT-22">
          <mxGeometry relative="1" as="geometry">
            <mxPoint x="1035" y="530" as="targetPoint" />
          </mxGeometry>
        </mxCell>
        <mxCell id="0x68oFM2UOdlTOCWTfVT-22" value="deputados.faiss" style="rounded=0;whiteSpace=wrap;html=1;fillColor=#f8cecc;strokeColor=#b85450;" vertex="1" parent="1">
          <mxGeometry x="940" y="430" width="190" height="60" as="geometry" />
        </mxCell>
        <mxCell id="0x68oFM2UOdlTOCWTfVT-24" value="FAISS KDB" style="shape=cylinder3;whiteSpace=wrap;html=1;boundedLbl=1;backgroundOutline=1;size=15;fillColor=#f8cecc;strokeColor=#b85450;" vertex="1" parent="1">
          <mxGeometry x="940" y="533" width="190" height="237" as="geometry" />
        </mxCell>
        <mxCell id="0x68oFM2UOdlTOCWTfVT-26" value="expenses.faiss" style="rounded=0;whiteSpace=wrap;html=1;fillColor=#f8cecc;strokeColor=#b85450;" vertex="1" parent="1">
          <mxGeometry x="940" y="370" width="190" height="60" as="geometry" />
        </mxCell>
        <mxCell id="0x68oFM2UOdlTOCWTfVT-27" value="propositions.faiss" style="rounded=0;whiteSpace=wrap;html=1;fillColor=#f8cecc;strokeColor=#b85450;" vertex="1" parent="1">
          <mxGeometry x="940" y="310" width="190" height="60" as="geometry" />
        </mxCell>
        <mxCell id="0x68oFM2UOdlTOCWTfVT-32" value="LLM GEMINI" style="rounded=0;whiteSpace=wrap;html=1;fillColor=#dae8fc;strokeColor=#6c8ebf;" vertex="1" parent="1">
          <mxGeometry x="350" y="950" width="780" height="60" as="geometry" />
        </mxCell>
        <mxCell id="0x68oFM2UOdlTOCWTfVT-43" value="STREAMLIT CACHE" style="rounded=0;whiteSpace=wrap;html=1;fillColor=#f8cecc;strokeColor=#b85450;" vertex="1" parent="1">
          <mxGeometry x="1320" y="314" width="780" height="60" as="geometry" />
        </mxCell>
        <mxCell id="0x68oFM2UOdlTOCWTfVT-44" value="Aba&amp;nbsp;&lt;span style=&quot;color: rgb(49, 51, 63); font-family: &amp;quot;Source Sans Pro&amp;quot;, sans-serif; font-size: 14px; text-wrap-mode: nowrap; background-color: rgb(255, 255, 255);&quot;&gt;Overview&lt;/span&gt;" style="rounded=0;whiteSpace=wrap;html=1;" vertex="1" parent="1">
          <mxGeometry x="1320" y="414" width="215" height="60" as="geometry" />
        </mxCell>
        <mxCell id="0x68oFM2UOdlTOCWTfVT-45" value="Aba Despesas" style="rounded=0;whiteSpace=wrap;html=1;" vertex="1" parent="1">
          <mxGeometry x="1615" y="414" width="215" height="60" as="geometry" />
        </mxCell>
        <mxCell id="0x68oFM2UOdlTOCWTfVT-46" value="Aba Proposições + Chat" style="rounded=0;whiteSpace=wrap;html=1;" vertex="1" parent="1">
          <mxGeometry x="1885" y="414" width="215" height="60" as="geometry" />
        </mxCell>
        <mxCell id="0x68oFM2UOdlTOCWTfVT-63" style="edgeStyle=orthogonalEdgeStyle;rounded=0;orthogonalLoop=1;jettySize=auto;html=1;" edge="1" parent="1" source="0x68oFM2UOdlTOCWTfVT-50">
          <mxGeometry relative="1" as="geometry">
            <mxPoint x="1390" y="750" as="targetPoint" />
          </mxGeometry>
        </mxCell>
        <mxCell id="0x68oFM2UOdlTOCWTfVT-50" value="DASHBOARD" style="ellipse;whiteSpace=wrap;html=1;aspect=fixed;fillColor=#e1d5e7;strokeColor=#9673a6;" vertex="1" parent="1">
          <mxGeometry x="1500" y="670" width="160" height="160" as="geometry" />
        </mxCell>
        <mxCell id="0x68oFM2UOdlTOCWTfVT-64" style="edgeStyle=orthogonalEdgeStyle;rounded=0;orthogonalLoop=1;jettySize=auto;html=1;entryX=1;entryY=0.5;entryDx=0;entryDy=0;" edge="1" parent="1" source="0x68oFM2UOdlTOCWTfVT-51" target="0x68oFM2UOdlTOCWTfVT-50">
          <mxGeometry relative="1" as="geometry" />
        </mxCell>
        <mxCell id="0x68oFM2UOdlTOCWTfVT-51" value="LLM GEMINI" style="rounded=0;whiteSpace=wrap;html=1;fillColor=#dae8fc;strokeColor=#6c8ebf;" vertex="1" parent="1">
          <mxGeometry x="1806" y="720" width="294" height="60" as="geometry" />
        </mxCell>
        <mxCell id="0x68oFM2UOdlTOCWTfVT-53" value="Usuário" style="shape=umlActor;verticalLabelPosition=bottom;verticalAlign=top;html=1;outlineConnect=0;" vertex="1" parent="1">
          <mxGeometry x="1320" y="680" width="60" height="120" as="geometry" />
        </mxCell>
        <mxCell id="0x68oFM2UOdlTOCWTfVT-60" style="edgeStyle=orthogonalEdgeStyle;rounded=0;orthogonalLoop=1;jettySize=auto;html=1;" edge="1" parent="1">
          <mxGeometry relative="1" as="geometry">
            <mxPoint x="1380" y="740" as="sourcePoint" />
            <mxPoint x="1490" y="740" as="targetPoint" />
            <Array as="points">
              <mxPoint x="1440" y="740" />
            </Array>
          </mxGeometry>
        </mxCell>
        <mxCell id="0x68oFM2UOdlTOCWTfVT-65" style="edgeStyle=orthogonalEdgeStyle;rounded=0;orthogonalLoop=1;jettySize=auto;html=1;entryX=0.634;entryY=0.031;entryDx=0;entryDy=0;entryPerimeter=0;exitX=0.5;exitY=1;exitDx=0;exitDy=0;" edge="1" parent="1" source="0x68oFM2UOdlTOCWTfVT-73" target="0x68oFM2UOdlTOCWTfVT-51">
          <mxGeometry relative="1" as="geometry">
            <mxPoint x="1980" y="550" as="sourcePoint" />
          </mxGeometry>
        </mxCell>
        <mxCell id="0x68oFM2UOdlTOCWTfVT-68" style="edgeStyle=orthogonalEdgeStyle;rounded=0;orthogonalLoop=1;jettySize=auto;html=1;" edge="1" parent="1" source="0x68oFM2UOdlTOCWTfVT-67" target="0x68oFM2UOdlTOCWTfVT-42">
          <mxGeometry relative="1" as="geometry" />
        </mxCell>
        <mxCell id="0x68oFM2UOdlTOCWTfVT-67" value="API CÂMARA DOS DEPUTADOS" style="rounded=0;whiteSpace=wrap;html=1;fillColor=#d5e8d4;strokeColor=#82b366;" vertex="1" parent="1">
          <mxGeometry x="300" y="120" width="870" height="60" as="geometry" />
        </mxCell>
        <mxCell id="0x68oFM2UOdlTOCWTfVT-78" style="edgeStyle=orthogonalEdgeStyle;rounded=0;orthogonalLoop=1;jettySize=auto;html=1;" edge="1" parent="1" source="0x68oFM2UOdlTOCWTfVT-69" target="0x68oFM2UOdlTOCWTfVT-50">
          <mxGeometry relative="1" as="geometry">
            <Array as="points">
              <mxPoint x="1428" y="614" />
              <mxPoint x="1580" y="614" />
            </Array>
          </mxGeometry>
        </mxCell>
        <mxCell id="0x68oFM2UOdlTOCWTfVT-69" value="&lt;div&gt;&lt;ol&gt;&lt;li style=&quot;text-align: left;&quot;&gt;Distribuição de Deputados&lt;br&gt;por Partido&lt;/li&gt;&lt;li style=&quot;text-align: left;&quot;&gt;Insights sobre a Distribuição dos Deputados&lt;/li&gt;&lt;/ol&gt;&lt;/div&gt;" style="rounded=0;whiteSpace=wrap;html=1;" vertex="1" parent="1">
          <mxGeometry x="1320" y="474" width="215" height="120" as="geometry" />
        </mxCell>
        <UserObject label="distribuicao_deputados.png" id="0x68oFM2UOdlTOCWTfVT-70">
          <mxCell style="rounded=0;whiteSpace=wrap;html=1;fillColor=#dae8fc;strokeColor=#6c8ebf;" vertex="1" parent="1">
            <mxGeometry x="350" y="790" width="250" height="60" as="geometry" />
          </mxCell>
        </UserObject>
        <UserObject label="config.yml" id="0x68oFM2UOdlTOCWTfVT-71">
          <mxCell style="rounded=0;whiteSpace=wrap;html=1;fillColor=#dae8fc;strokeColor=#6c8ebf;" vertex="1" parent="1">
            <mxGeometry x="350" y="870" width="250" height="60" as="geometry" />
          </mxCell>
        </UserObject>
        <mxCell id="0x68oFM2UOdlTOCWTfVT-72" value="&lt;ol&gt;&lt;li style=&quot;text-align: left;&quot;&gt;&lt;span style=&quot;background-color: initial;&quot;&gt;Insights sobre as Despesas&lt;br&gt;dos Deputados&lt;/span&gt;&lt;/li&gt;&lt;li style=&quot;text-align: left;&quot;&gt;Despesas diárias por&lt;br&gt;Deputado&lt;/li&gt;&lt;/ol&gt;" style="rounded=0;whiteSpace=wrap;html=1;" vertex="1" parent="1">
          <mxGeometry x="1615" y="474" width="215" height="120" as="geometry" />
        </mxCell>
        <mxCell id="0x68oFM2UOdlTOCWTfVT-73" value="&lt;ol&gt;&lt;li style=&quot;text-align: left;&quot;&gt;Proposições em Andamento&lt;/li&gt;&lt;li style=&quot;text-align: left;&quot;&gt;Sumarização das Proposições&lt;/li&gt;&lt;li style=&quot;text-align: left;&quot;&gt;Chat com Especialista&lt;/li&gt;&lt;/ol&gt;" style="rounded=0;whiteSpace=wrap;html=1;" vertex="1" parent="1">
          <mxGeometry x="1885" y="474" width="215" height="120" as="geometry" />
        </mxCell>
        <mxCell id="0x68oFM2UOdlTOCWTfVT-74" value="&lt;font style=&quot;font-size: 18px;&quot;&gt;dataprep.py&lt;/font&gt;" style="text;html=1;align=center;verticalAlign=middle;resizable=0;points=[];autosize=1;strokeColor=none;fillColor=none;" vertex="1" parent="1">
          <mxGeometry x="665" y="245" width="120" height="40" as="geometry" />
        </mxCell>
        <mxCell id="0x68oFM2UOdlTOCWTfVT-76" value="&lt;font style=&quot;font-size: 18px;&quot;&gt;dashboard.py (Streamlit)&lt;/font&gt;" style="text;html=1;align=center;verticalAlign=middle;resizable=0;points=[];autosize=1;strokeColor=none;fillColor=none;" vertex="1" parent="1">
          <mxGeometry x="1600" y="245" width="220" height="40" as="geometry" />
        </mxCell>
        <mxCell id="0x68oFM2UOdlTOCWTfVT-77" style="edgeStyle=orthogonalEdgeStyle;rounded=0;orthogonalLoop=1;jettySize=auto;html=1;entryX=1.002;entryY=0.427;entryDx=0;entryDy=0;entryPerimeter=0;" edge="1" parent="1" source="0x68oFM2UOdlTOCWTfVT-72" target="0x68oFM2UOdlTOCWTfVT-50">
          <mxGeometry relative="1" as="geometry" />
        </mxCell>
      </root>
    </mxGraphModel>
  </diagram>
</mxfile>
